<svg width="21" height="22" viewBox="0 0 21 22" fill="none" xmlns="http://www.w3.org/2000/svg">
<ellipse cx="10.5" cy="10.92" rx="10.5" ry="10.92" fill="#2F4058"/>
<path d="M16.7519 15.852C15.8561 14.2415 14.4757 13.0866 12.8648 12.5392C13.6616 12.0459 14.2807 11.2941 14.627 10.3994C14.9733 9.50475 15.0276 8.51658 14.7816 7.58669C14.5356 6.65679 14.0029 5.83659 13.2653 5.25203C12.5277 4.66747 11.626 4.35088 10.6987 4.35088C9.7713 4.35088 8.86959 4.66747 8.13199 5.25203C7.39439 5.83659 6.86169 6.65679 6.61569 7.58669C6.36969 8.51658 6.424 9.50475 6.77028 10.3994C7.11656 11.2941 7.73566 12.0459 8.5325 12.5392C6.92156 13.086 5.54118 14.2409 4.64543 15.852C4.61258 15.9077 4.59079 15.9697 4.58135 16.0343C4.57191 16.0989 4.575 16.1648 4.59045 16.2282C4.6059 16.2915 4.63339 16.351 4.6713 16.4031C4.70921 16.4552 4.75677 16.4989 4.81118 16.5316C4.86559 16.5643 4.92574 16.5853 4.98809 16.5934C5.05043 16.6015 5.11371 16.5966 5.17419 16.5788C5.23466 16.5611 5.29111 16.531 5.3402 16.4902C5.38929 16.4494 5.43003 16.3988 5.46001 16.3414C6.56808 14.3498 8.52662 13.1607 10.6987 13.1607C12.8707 13.1607 14.8292 14.3498 15.9373 16.3414C15.9673 16.3988 16.008 16.4494 16.0571 16.4902C16.1062 16.531 16.1626 16.5611 16.2231 16.5788C16.2836 16.5966 16.3469 16.6015 16.4092 16.5934C16.4716 16.5853 16.5317 16.5643 16.5861 16.5316C16.6405 16.4989 16.6881 16.4552 16.726 16.4031C16.7639 16.351 16.7914 16.2915 16.8069 16.2282C16.8223 16.1648 16.8254 16.0989 16.816 16.0343C16.8065 15.9697 16.7847 15.9077 16.7519 15.852ZM7.40502 8.7566C7.40502 8.07913 7.59819 7.41687 7.9601 6.85357C8.32201 6.29027 8.8364 5.85123 9.43823 5.59197C10.0401 5.33271 10.7023 5.26488 11.3412 5.39704C11.9801 5.52921 12.567 5.85545 13.0276 6.3345C13.4882 6.81354 13.8019 7.42389 13.929 8.08835C14.0561 8.7528 13.9909 9.44153 13.7416 10.0674C13.4923 10.6933 13.0701 11.2283 12.5285 11.6047C11.9869 11.9811 11.3501 12.182 10.6987 12.182C9.82541 12.181 8.98821 11.8198 8.37073 11.1776C7.75326 10.5355 7.40595 9.66477 7.40502 8.7566Z" fill="#F6F6F6"/>
</svg>
