<svg width="22" height="23" viewBox="0 0 22 23" fill="none" xmlns="http://www.w3.org/2000/svg">
<path d="M1.4375 11.5938H19.5625C19.8029 11.5938 20.0334 11.4983 20.2033 11.3283C20.3733 11.1584 20.4688 10.9279 20.4688 10.6875V7.96875C20.4688 7.8497 20.4455 7.73181 20.4 7.62179C20.3545 7.51178 20.2878 7.4118 20.2037 7.32758L13.8599 0.983828C13.7757 0.899697 13.6757 0.832985 13.5657 0.787502C13.4557 0.742019 13.3378 0.718657 13.2188 0.71875H2.34375C1.86305 0.71875 1.40203 0.909709 1.06212 1.24962C0.722209 1.58953 0.53125 2.05055 0.53125 2.53125V10.6875C0.53125 10.9279 0.62673 11.1584 0.796685 11.3283C0.966639 11.4983 1.19715 11.5938 1.4375 11.5938ZM13.2188 2.98438L18.2031 7.96875H13.2188V2.98438ZM21.375 15.2188C21.375 15.4591 21.2795 15.6896 21.1096 15.8596C20.9396 16.0295 20.7091 16.125 20.4688 16.125H17.75V17.9375H19.5625C19.8029 17.9375 20.0334 18.033 20.2033 18.2029C20.3733 18.3729 20.4688 18.6034 20.4688 18.8438C20.4688 19.0841 20.3733 19.3146 20.2033 19.4846C20.0334 19.6545 19.8029 19.75 19.5625 19.75H17.75V21.5625C17.75 21.8029 17.6545 22.0334 17.4846 22.2033C17.3146 22.3733 17.0841 22.4688 16.8438 22.4688C16.6034 22.4688 16.3729 22.3733 16.2029 22.2033C16.033 22.0334 15.9375 21.8029 15.9375 21.5625V15.2188C15.9375 14.9784 16.033 14.7479 16.2029 14.5779C16.3729 14.408 16.6034 14.3125 16.8438 14.3125H20.4688C20.7091 14.3125 20.9396 14.408 21.1096 14.5779C21.2795 14.7479 21.375 14.9784 21.375 15.2188ZM3.25 14.3125H1.4375C1.19715 14.3125 0.966639 14.408 0.796685 14.5779C0.62673 14.7479 0.53125 14.9784 0.53125 15.2188V21.5625C0.53125 21.8029 0.62673 22.0334 0.796685 22.2033C0.966639 22.3733 1.19715 22.4688 1.4375 22.4688C1.67785 22.4688 1.90836 22.3733 2.07832 22.2033C2.24827 22.0334 2.34375 21.8029 2.34375 21.5625V20.6562H3.25C4.09123 20.6562 4.89801 20.3221 5.49285 19.7272C6.0877 19.1324 6.42188 18.3256 6.42188 17.4844C6.42188 16.6431 6.0877 15.8364 5.49285 15.2415C4.89801 14.6467 4.09123 14.3125 3.25 14.3125ZM3.25 18.8438H2.34375V16.125H3.25C3.61053 16.125 3.95629 16.2682 4.21122 16.5232C4.46616 16.7781 4.60937 17.1238 4.60938 17.4844C4.60937 17.8449 4.46616 18.1907 4.21122 18.4456C3.95629 18.7005 3.61053 18.8438 3.25 18.8438ZM10.5 14.3125H8.6875C8.44715 14.3125 8.21664 14.408 8.04668 14.5779C7.87673 14.7479 7.78125 14.9784 7.78125 15.2188V21.5625C7.78125 21.8029 7.87673 22.0334 8.04668 22.2033C8.21664 22.3733 8.44715 22.4688 8.6875 22.4688H10.5C11.5816 22.4688 12.6189 22.0391 13.3837 21.2743C14.1485 20.5095 14.5781 19.4722 14.5781 18.3906C14.5781 17.309 14.1485 16.2718 13.3837 15.507C12.6189 14.7422 11.5816 14.3125 10.5 14.3125ZM10.5 20.6562H9.59375V16.125H10.5C11.1009 16.125 11.6772 16.3637 12.102 16.7886C12.5269 17.2135 12.7656 17.7897 12.7656 18.3906C12.7656 18.9915 12.5269 19.5678 12.102 19.9927C11.6772 20.4176 11.1009 20.6562 10.5 20.6562Z" fill="#2F4058"/>
</svg>
